<svg xmlns="http://www.w3.org/2000/svg" fill="#2DA5FD" viewBox="0 0 46 46" height="40" width="40" class="icon">
	<g fill="none" fill-rule="evenodd">
		<path stroke="#2DA5FD" d="M6 23a17 17 0 1134 0 17 17 0 01-34 0z"></path>
		<path d="M0 0h46v46H0z"></path>
		<g fill="#2DA5FD" fill-rule="nonzero">
			<path d="M23 14c-2.45 0-2.75.01-3.71.05-.96.05-1.61.2-2.19.42-.59.23-1.09.54-1.59 1.04s-.8 1-1.04 1.6a6.62 6.62 0 00-.42 2.18c-.04.96-.05 1.26-.05 3.7 0 2.45.01 2.76.05 3.72.05.95.2 1.6.42 2.18.23.6.54 1.1 1.04 1.6s1 .8 1.6 1.03a6.6 6.6 0 002.18.42c.96.04 1.26.05 3.7.05 2.45 0 2.76 0 3.72-.05.95-.04 1.6-.2 2.18-.42.6-.23 1.1-.54 1.6-1.04s.8-1 1.03-1.59a6.6 6.6 0 00.42-2.18c.04-.96.05-1.27.05-3.71 0-2.45 0-2.75-.05-3.71a6.62 6.62 0 00-.42-2.19c-.23-.59-.54-1.09-1.04-1.59s-1-.8-1.59-1.04a6.63 6.63 0 00-2.18-.42c-.96-.04-1.27-.05-3.71-.05zm0 1.62c2.4 0 2.68.01 3.63.05.88.04 1.36.19 1.67.31.42.17.72.36 1.04.68.31.31.5.61.67 1.03.12.32.27.8.31 1.67.04.95.05 1.24.05 3.64s0 2.68-.05 3.63a4.98 4.98 0 01-.3 1.67c-.17.42-.37.72-.68 1.04-.32.31-.62.5-1.04.67-.31.12-.79.27-1.67.31-.95.04-1.23.05-3.63.05s-2.69 0-3.64-.05a4.98 4.98 0 01-1.67-.3 2.79 2.79 0 01-1.03-.68 2.8 2.8 0 01-.68-1.04c-.12-.31-.27-.79-.3-1.67a62.9 62.9 0 01-.06-3.63c0-2.4.01-2.69.05-3.64.04-.88.19-1.35.31-1.67.17-.42.36-.72.68-1.03a2.8 2.8 0 011.03-.68c.32-.12.8-.27 1.67-.3.95-.05 1.23-.06 3.64-.06z"></path>
			<path d="M23 26a3 3 0 110-6 3 3 0 010 6zm0-7.62a4.62 4.62 0 100 9.24 4.62 4.62 0 000-9.24zm5.88-.19a1.08 1.08 0 11-2.16 0 1.08 1.08 0 012.16 0"></path>
		</g>
	</g>
</svg>