<?xml version="1.0" standalone="no"?>
<svg version="1.0"
	xmlns="http://www.w3.org/2000/svg" width="52" height="52" viewBox="0 0 640.000000 640.000000" preserveAspectRatio="xMidYMid meet">
	<g transform="translate(0.000000,640.000000) scale(0.100000,-0.100000)" fill="#2DA5FD" stroke="none">
		<path d="M2890 6240 c-404 -49 -724 -145 -1074 -323 -908 -462 -1523 -1353
-1641 -2377 -20 -176 -20 -504 0 -680 119 -1035 741 -1928 1664 -2388 317
-159 577 -240 951 -299 165 -26 655 -26 820 0 374 59 634 140 951 299 841 419
1434 1197 1623 2128 35 175 69 483 68 625 0 135 -39 445 -77 618 -199 913
-787 1672 -1614 2085 -314 157 -574 239 -941 298 -122 19 -607 28 -730 14z
m705 -319 c376 -56 717 -181 1040 -380 256 -158 512 -381 688 -601 253 -314
442 -694 536 -1075 56 -228 91 -510 68 -543 -13 -17 -2428 -17 -2470 1 -16 7
-41 30 -55 52 -56 84 -183 117 -298 78 -97 -33 -194 -163 -194 -259 0 -101
101 -229 205 -260 109 -31 225 -2 282 72 15 20 42 43 60 50 27 12 250 14 1253
14 l1220 0 0 -81 c0 -146 -62 -460 -131 -664 -102 -301 -275 -616 -476 -865
-176 -220 -432 -443 -688 -601 -323 -199 -664 -324 -1040 -380 -185 -27 -605
-27 -790 0 -376 56 -717 181 -1040 380 -256 158 -512 381 -688 601 -303 376
-512 844 -582 1300 -8 58 -20 128 -25 155 -11 65 -11 505 0 570 5 28 17 97 25
155 58 375 207 755 425 1082 118 177 201 279 345 423 191 191 378 331 637 479
227 128 594 250 893 296 177 27 620 27 800 1z"/>
	</g>
</svg>
